<svg width="24" height="24" viewBox="0 0 24 24" fill="none" xmlns="http://www.w3.org/2000/svg" class="rc-h-6 rc-hidden lg:rc-block xl:rc-hidden"><path d="M7.77661 12.0014L23.466 8.22495V0.0134277H15.3302L7.77661 12.0014Z" fill="#FF3300"></path> <path d="M0 11.857C0 12.8394 0.118643 13.7929 0.342746 14.7065L7.77551 12.0011L0.281228 9.27136C0.0988691 10.1029 0 10.9678 0 11.8548V11.857Z" fill="#FF3300"></path> <path d="M2.76416 4.22196L7.77353 12.0011L10.0827 0.130615C7.15834 0.545294 4.58115 2.04878 2.76416 4.22196Z" fill="#FF3300"></path> <path d="M7.77661 12.0013L23.466 15.7756V23.9871H15.3302L7.77661 12.0013Z" fill="#FF3300"></path> <path d="M2.76465 19.7779L7.77402 11.9988L10.081 23.867C7.15663 23.4523 4.57945 21.9488 2.76245 19.7757L2.76465 19.7779Z" fill="#FF3300"></path></svg>