<svg version="1.1" id="Layer_1" xmlns:x="ns_extend;" xmlns:i="ns_ai;" xmlns:graph="ns_graphs;" xmlns="http://www.w3.org/2000/svg" xmlns:xlink="http://www.w3.org/1999/xlink" x="0px" y="0px" viewBox="0 0 39.4 42" style="enable-background:new 0 0 39.4 42;" xml:space="preserve">
 <style type="text/css">
  .st0{fill:#EE5A29;}
 </style>
 <metadata>
  <sfw xmlns="ns_sfw;">
   <slices>
   </slices>
   <sliceSourceBounds bottomLeftOrigin="true" height="42" width="39.4" x="-8.4" y="-9">
   </sliceSourceBounds>
  </sfw>
 </metadata>
 <g>
  <path class="st0" d="M30.5,11.3c2.3,0,4.5,0.9,6.1,2.3c1.1,0.9,2.7,0.2,2.7-1.3v-9C39.3,1.5,37.9,0,36,0H3.3C1.5,0,0,1.5,0,3.3
		v35.5C0,40.5,1.5,42,3.3,42h32.8c1.8,0,3.3-1.5,3.3-3.3v-9c0-1.4-1.6-2.2-2.7-1.3c-1.7,1.5-3.8,2.3-6.1,2.3c-5.3,0-9.6-4.4-9.6-9.7
		C21,15.7,25.3,11.3,30.5,11.3z">
  </path>
 </g>
</svg>