<?xml version="1.0" encoding="UTF-8"?><svg id="Layer_2" xmlns="http://www.w3.org/2000/svg" viewBox="0 0 791.065 108.9594"><g id="Components"><g id="_2b40b012-8257-420f-8288-1d158566e159_7"><polygon points="78.3999 4.4594 52.2 4.4594 52.2 30.5595 78.3999 56.6591 52.2 82.8593 52.2 108.9594 78.3999 108.9594 104.5 82.8593 104.5 30.5595 78.3999 4.4594" style="fill:#e4ffce; stroke-width:0px;"/><polygon points="39.2 17.4594 26.1001 4.4594 0 4.4594 0 30.5595 13 43.6591 26.1001 56.6591 52.2 30.5595 39.2 17.4594" style="fill:#e4ffce; stroke-width:0px;"/><polygon points="13 69.7592 0 82.8593 0 108.9594 26.1001 108.9594 39.2 95.8593 52.2 82.8593 26.1001 56.6591 13 69.7592" style="fill:#e4ffce; stroke-width:0px;"/><rect x="698.7239" width="16.0781" height="16.0654" style="fill:#e4ffce; stroke-width:0px;"/><path d="M176.9449,36.4105c7.1615,0,13.318,4.271,15.077,11.307h15.9561c-1.759-14.951-15.0765-24.877-30.907-24.877-18.3435,0-33.546,13.695-33.546,33.672,0,20.856,14.6995,34.3,33.2946,34.3,15.2025,0,28.7715-9.2971,31.1585-25.002h-15.9561c-2.0099,7.412-8.041,11.433-15.077,11.433-9.674,0-16.8355-8.669-16.8355-20.731,0-11.81,6.91-20.102,16.8355-20.102Z" style="fill:#e4ffce; stroke-width:0px;"/><path d="M256.346,60.2816c0,11.434-6.408,16.711-13.318,16.711-7.664,0-12.69-5.152-12.69-14.449V24.3485h-16.208v40.833c0,16.962,9.8,25.631,23.621,25.631,8.167,0,14.825-3.015,18.972-9.046v7.664h15.705V24.3485h-16.082v35.933Z" style="fill:#e4ffce; stroke-width:0px;"/><rect x="665.9454" y="72.4645" width="17.677" height="16.966" style="fill:#e4ffce; stroke-width:0px;"/><path d="M413.2156,22.8405c-18.846,0-34.3,13.193-34.3,33.672,0,21.108,15.202,34.3,34.3,34.3,18.846,0,34.174-13.444,34.174-34.3,0-20.731-15.203-33.672-34.174-33.672ZM413.2156,77.2435c-10.554,0-17.716-8.418-17.716-20.731,0-11.936,7.036-20.102,17.716-20.102,10.428,0,17.5891,8.292,17.5891,20.102,0,12.439-7.161,20.731-17.5891,20.731Z" style="fill:#e4ffce; stroke-width:0px;"/><path d="M530.5596,22.8405c-9.0459,0-16.8359,3.77-21.2329,10.806-4.146-7.5389-11.811-10.806-19.4751-10.806-8.543,0-15.2019,3.267-19.0969,9.172v-7.664h-15.705v65.082h16.082v-36.184c0-11.057,6.408-16.585,13.3181-16.585s12.187,4.649,12.187,14.072v38.697h16.082v-36.184c0-10.931,6.408-16.585,13.3179-16.585s12.187,4.649,12.187,14.072v38.697h16.208v-41.336c0-18.343-11.1819-25.254-23.8721-25.254Z" style="fill:#e4ffce; stroke-width:0px;"/><path d="M594.5057,22.8405c-17.3389,0-33.2949,12.941-33.2949,33.547,0,21.61,15.4541,34.425,33.9231,34.425,13.4429,0,27.3889-6.156,31.4099-20.479h-15.8311c-3.0149,5.779-9.0459,7.789-15.0769,7.789-9.2971,0-16.8359-6.407-18.092-16.71h49.6279v-3.518c0-23.118-15.0769-35.054-32.666-35.054ZM577.4178,49.9795c1.1309-9.172,8.293-14.574,16.8359-14.574,9.0461,0,15.5801,5.779,16.334,14.574h-33.1699Z" style="fill:#e4ffce; stroke-width:0px;"/><path d="M673.4039,39.4255v-15.202c-1.1311-.252-2.7651-.377-4.5229-.377-5.6541,0-9.2981,1.256-13.1931,4.271-2.136,1.759-3.769,3.895-5.1509,6.157v-9.926h-15.7051v65.082h16.082v-35.054c0-12.689,9.0459-15.202,16.082-15.202,1.759,0,3.2668,0,6.408.251Z" style="fill:#e4ffce; stroke-width:0px;"/><rect x="698.722" y="24.3485" width="16.082" height="65.082" style="fill:#e4ffce; stroke-width:0px;"/><path d="M756.8909,22.8405c-18.8459,0-34.3,13.193-34.3,33.672,0,21.108,15.2021,34.3,34.3,34.3,18.8459,0,34.1741-13.444,34.1741-34.3,0-20.731-15.2031-33.672-34.1741-33.672ZM756.8909,77.2435c-10.554,0-17.7161-8.418-17.7161-20.731,0-11.936,7.0361-20.102,17.7161-20.102,10.428,0,17.5891,8.292,17.5891,20.102,0,12.439-7.1611,20.731-17.5891,20.731Z" style="fill:#e4ffce; stroke-width:0px;"/><path d="M362.5837,68.0814v-30.7328h15.077v-12.9996h-15.0925V4.4594h-15.9498v11.9656l7.9241,7.924h-18.8459v12.9996h10.931v32.549c0,4.6658,1.3866,25.751,31.2329,20.1253v-13.5164c-8.4581,2.5269-15.2769-.0432-15.2769-8.425Z" style="fill:#e4ffce; stroke-width:0px;"/><path d="M313.2223,50.228l-8.5474-1.8575c-2.4768-.4957-4.5017-1.2386-6.0692-2.23-1.5699-.9908-2.3536-2.3943-2.3536-4.2121,0-3.0619,3.2176-6.4034,9.5378-6.4034,3.8575,0,10.8386,1.5125,11.7474,8.3036h15.4916c-.6869-3.6663-3.8506-21.0999-26.9912-21.0999-7.6797,0-13.7494,1.92-18.2089,5.7607-4.4595,3.8392-6.6889,8.692-6.6889,14.554,0,3.9643.9908,7.2054,2.973,9.724,1.9816,2.52,4.5404,4.5021,7.6797,5.9454,3.1374,1.4457,6.5226,2.5394,10.1576,3.2829l9.0426,1.858c2.6417.5791,4.7627,1.2951,6.0075,2.5399,3.3488,3.3487,1.6308,11.2393-9.3077,11.2393-11.6127,0-13.2852-8.4189-13.4583-10.8443h-15.6074c0,4.9027,3.7973,24.0692,29.7644,24.0692,5.4503,0,10.0955-.9292,13.9352-2.7877,3.8406-1.858,6.7704-4.3755,8.7947-7.5556,2.0229-3.1786,3.035-6.7083,3.035-10.5911,0-11.1599-6.9559-16.8618-20.934-19.6954Z" style="fill:#e4ffce; stroke-width:0px;"/></g></g></svg>