<svg class="icon icon--logo h-full w-full" fill="white" preserveAspectRatio="xMidYMid meet" viewBox="0 0 171 22" xmlns="http://www.w3.org/2000/svg"><path d="M0 0H4.53691V21.6364H0V0Z" fill="white" opacity="1" transform-origin="2.2684550285339355px 10.81820011138916px" style="transform: none; transform-origin: 2.26846px 10.8182px;"></path><path d="M9.01292 0H13.5498V21.6364H9.01292V0Z" fill="white" opacity="1" transform-origin="11.281360149383545px 10.81820011138916px" style="transform: none; transform-origin: 11.2814px 10.8182px;"></path><path d="M18.0252 0H31.4533V3.60606H22.5622V8.75758H30.8443V12.3636H22.5622V18.0303H31.4533V21.6364H18.0252V0Z" fill="white" opacity="1" width="auto"></path><path d="M34.2235 0H38.5169V21.6364H34.2235V0Z" fill="white" opacity="1" width="auto"></path><path d="M41.105 13.5152C41.105 7.60606 44.0586 5.06061 48.6564 5.06061C53.2542 5.06061 55.8728 7.57576 55.8728 13.5758V14.5455H45.3375C45.4897 18.0606 46.5554 19.2424 48.5955 19.2424C50.2093 19.2424 51.2141 18.303 51.3968 16.6667H55.6901C55.4161 20.2424 52.4321 22 48.5955 22C43.7237 22 41.105 19.4242 41.105 13.5152ZM51.6404 11.7273C51.4273 8.75758 50.392 7.78788 48.5955 7.78788C46.799 7.78788 45.6724 8.78788 45.3679 11.7273H51.6404Z" fill="white" opacity="1" width="auto"></path><path d="M61.171 5.42424H56.7863L62.0844 21.6364H66.804L72.1022 5.42424H67.7175L64.3998 17.6364L61.171 5.42424Z" fill="white" opacity="1" width="auto"></path><path d="M72.9243 13.5152C72.9243 7.60606 75.8779 5.06061 80.4757 5.06061C85.0735 5.06061 87.6921 7.57576 87.6921 13.5758V14.5455H77.1567C77.309 18.0606 78.3747 19.2424 80.4148 19.2424C82.0286 19.2424 83.0334 18.303 83.2161 16.6667H87.5094C87.2354 20.2424 84.2514 22 80.4148 22C75.5429 22 72.9243 19.4242 72.9243 13.5152ZM83.4597 11.7273C83.2465 8.75758 82.2113 7.78788 80.4148 7.78788C78.6183 7.78788 77.4917 8.78788 77.1872 11.7273H83.4597Z" fill="white" opacity="1" width="auto"></path><path d="M94.6345 12.0909C94.6345 9.54545 95.8524 8.15152 97.7403 8.15152C99.2932 8.15152 100.176 9.12121 100.176 11.2121V21.6364H104.47V10.5455C104.47 6.78788 102.338 5.06061 99.2323 5.06061C97.1313 5.06061 95.3957 6.12121 94.6345 7.51515V5.42424H90.2803V21.6364H94.6345V12.0909Z" fill="white" opacity="1" width="auto"></path><path d="M108.031 0H112.568V18.0303H121.094V21.6364H108.031V0Z" fill="white" opacity="1" width="auto"></path><path clip-rule="evenodd" d="M122.16 13.5152C122.16 7.33333 125.022 5.06061 128.706 5.06061C130.533 5.06061 132.208 6.09091 132.878 7.18182V5.42424H137.262V21.6364H133V19.7273C132.36 21 130.564 22 128.584 22C124.687 22 122.16 19.5152 122.16 13.5152ZM129.833 8.24242C131.964 8.24242 133.121 9.84848 133.121 13.5152C133.121 17.1818 131.964 18.8182 129.833 18.8182C127.701 18.8182 126.483 17.1818 126.483 13.5152C126.483 9.84848 127.701 8.24242 129.833 8.24242Z" fill="white" fill-rule="evenodd" opacity="1" width="auto"></path><path clip-rule="evenodd" d="M144.844 19.7273V21.6364H140.581V0H144.875V7.18182C145.605 6.06061 147.311 5.06061 149.138 5.06061C152.731 5.06061 155.593 7.33333 155.593 13.5152C155.593 19.697 152.791 22 149.046 22C147.067 22 145.453 21 144.844 19.7273ZM147.92 8.27273C150.051 8.27273 151.269 9.84848 151.269 13.5152C151.269 17.1818 150.051 18.8182 147.92 18.8182C145.788 18.8182 144.631 17.1818 144.631 13.5152C144.631 9.84848 145.788 8.27273 147.92 8.27273Z" fill="white" fill-rule="evenodd" opacity="1" width="auto"></path><path d="M157.359 16.8182H161.652C161.713 18.5152 162.627 19.3333 164.24 19.3333C165.854 19.3333 166.768 18.6061 166.768 17.3333C166.768 16.1818 166.067 15.7576 164.545 15.3939L163.235 15.0606C159.521 14.1212 157.663 13.1212 157.663 10.0606C157.663 7 160.526 5.06061 164.179 5.06061C167.833 5.06061 170.604 6.48485 170.726 9.84848H166.433C166.341 8.36364 165.428 7.72727 164.119 7.72727C162.809 7.72727 161.896 8.36364 161.896 9.57576C161.896 10.697 162.627 11.1212 163.905 11.4242L165.245 11.7576C168.777 12.6364 171 13.5152 171 16.7879C171 20.0606 168.077 22 164.119 22C159.825 22 157.45 20.3939 157.359 16.8182Z" fill="white" opacity="1" width="auto"></path></svg>