<svg version="1.1" id="Layer_1" xmlns:x="ns_extend;" xmlns:i="ns_ai;" xmlns:graph="ns_graphs;" xmlns="http://www.w3.org/2000/svg" xmlns:xlink="http://www.w3.org/1999/xlink" x="0px" y="0px" viewBox="0 0 54.9 66" style="enable-background:new 0 0 54.9 66;" xml:space="preserve">
 <style type="text/css">
  .st0{fill-rule:evenodd;clip-rule:evenodd;fill:#1292EE;}
 </style>
 <metadata>
  <sfw xmlns="ns_sfw;">
   <slices>
   </slices>
   <sliceSourceBounds bottomLeftOrigin="true" height="66" width="54.9" x="254.1" y="50.7">
   </sliceSourceBounds>
  </sfw>
 </metadata>
 <g>
  <path class="st0" d="M23.3,19.5L4.2,39c-2.4-2.4-3.9-5.8-4.2-9.8c0-3.7,1.8-7.3,4.2-9.7L23.6,0c2.4,2.4,3.9,6.1,3.9,9.7
		S25.7,17.1,23.3,19.5L23.3,19.5z M31.7,46.5L51,27c2.4,2.7,3.9,6.1,3.9,9.7c0,3.7-1.8,7.3-4.2,9.8L31.4,66
		c-2.4-2.4-3.9-6.1-3.9-9.7C27.4,52.6,29.3,48.9,31.7,46.5L31.7,46.5z M31.2,19.5l5.7-5.7L51,0c2.4,2.4,3.9,6,3.9,9.6
		s-1.8,7.2-4.2,9.6L36.9,33l-5.7,5.7l-8.1,8.1l-5.7,5.7L3.9,66C1.5,63.6,0,60,0,56.4c0-3.6,1.8-7.2,4.2-9.6l13.5-13.5l5.4-5.7
		L31.2,19.5z">
  </path>
 </g>
</svg>