<svg class="mt-px h-[31px] w-auto text-fg-base transition-colors" fill="none" height="35" viewBox="0 0 280 102" xmlns="http://www.w3.org/2000/svg"><title>Sanity</title><g><path d="M29.067 34.736c-7.425-5.729-14.943-10.163-14.943-16.627 0-3.882 3.35-7.852 7.968-7.852 8.33 0 13.22 8.869 18.021 19.955H43.1v-25.5H22.27C5.074 4.711 0 15.337 0 23.648c0 10.904 9.144 17.368 19.105 24.943 6.976 5.264 12.862 10.163 12.862 15.798 0 6.099-4.076 9.61-9.236 9.61-5.523 0-13.674-7.393-19.376-22.726H.363v28.272h23.815c14.672 0 22.005-11.828 22.276-21.344.364-11.086-9.327-17.274-17.387-23.466Zm65.11 36.03V40.922c0-12.933-7.88-16.35-19.29-16.35H54.602l.092 21.061h3.35c3.533-8.963 8.601-15.52 14.037-15.52 4.71 0 6.883 4.157 6.883 8.498v4.064C71.36 47.293 50.98 51.175 50.98 65.22c0 8.129 5.523 14.874 13.583 14.874 6.975 0 11.864-4.617 14.308-10.069.455 4.529 3.258 9.516 9.87 9.516h10.412v-4.064c-3.35 0-4.981-2.311-4.981-4.71h.005Zm-15.485-23.28v18.662c-1.447 2.123-3.804 4.528-6.52 4.528-3.805 0-6.249-2.958-6.249-8.869 0-6.745 8.965-11.086 12.77-14.32ZM229.65 30.395c2.081 0 4.255.277 5.344 2.864l18.384 46.375c-3.534 8.222-9.599 9.516-20.466 6.099v16.262c5.523 0 10.596.094 11.865-.277 7.154-2.123 11.501-16.444 13.49-21.985l15.577-42.958c1.718-4.71 3.17-8.128 6.157-8.128v-4.064h-16.753v4.064c5.707 0 7.333 3.047 4.526 11.27l-6.792 18.755-8.693-22.82c-1.995-4.434-.905-7.205 3.257-7.205v-4.064h-43.104V6.1h-3.984c-1.176 6.281-7.789 18.479-18.748 18.479v4.064h7.063v37.97c0 6.376 2.081 13.763 14.216 13.763h18.835V59.313h-3.079c-1.36 4.9-4.439 14.692-10.504 14.692-3.349 0-3.805-3.788-3.805-6.834V30.395H229.649Zm-46.276 40.37V24.573h-20.644v4.064c3.533 0 5.073 2.217 5.073 4.805v37.323c-.179 2.494-1.811 4.711-5.073 4.711v4.064h26.08v-4.064c-2.536 0-5.252-2.311-5.431-4.71h-.005Zm-59.673 0 .092-31.595c2.173-2.958 4.438-5.54 8.238-5.54s5.707 3.046 5.707 6.834v30.301c0 2.4-1.631 4.711-4.981 4.711v4.064h25.718v-4.064c-3.258 0-4.889-2.588-4.889-4.71V39.17c0-9.886-4.618-15.703-13.767-15.703-7.604 0-12.406 5.175-16.026 10.622v-9.516h-21.279v4.064c3.804 0 5.344 2.587 5.344 4.805v37.323c0 2.4-1.632 4.711-4.981 4.711v4.064h25.717v-4.064c-3.257 0-4.888-2.588-4.888-4.71h-.005Zm50.622-51.92c5.794 0 9.42-4.159 9.42-9.517S180.121 0 174.322 0c-5.799 0-9.507 3.97-9.507 9.328 0 5.358 3.892 9.516 9.507 9.516Z" fill="currentColor"></path></g></svg>