<svg width="36" height="36" viewBox="0 0 36 36" fill="none" xmlns="http://www.w3.org/2000/svg">
<path d="M20.2826 12C20.6449 12 20.9529 12.0714 21.2428 12.2321C21.5145 12.375 21.7681 12.5714 21.9674 12.8036C22.3733 13.2914 22.5914 13.9048 22.5833 14.5357C22.5833 15 22.4565 15.4464 22.221 15.875C21.9769 16.3061 21.5946 16.6452 21.1341 16.8393C21.7138 17 22.1667 17.2857 22.5109 17.6964C22.837 18.125 23 18.6786 23 19.375C23 19.8214 22.9174 20.2192 22.7464 20.5179C22.5652 20.8393 22.2935 21.1071 21.9674 21.3036C21.6232 21.5179 21.2428 21.7143 20.808 21.8036C20.3732 21.9107 19.9022 22 19.413 22H13V12H20.2826ZM19.2422 17.5889H15.6114V19.2781H19.1549C19.3644 19.2781 19.5564 19.1937 19.7135 19.0585C19.8531 18.9234 19.9404 18.7207 19.9404 18.4673C19.9455 18.2499 19.8781 18.0367 19.7484 17.8592C19.6087 17.6903 19.4516 17.5889 19.2422 17.5889ZM18.9454 14.2105H15.6114V15.7308H18.8756C19.0502 15.7308 19.2247 15.6463 19.3644 15.545C19.5215 15.4436 19.5913 15.224 19.5913 14.9368C19.5913 14.6835 19.5215 14.4977 19.3993 14.3794C19.2771 14.2781 19.12 14.2105 18.9454 14.2105Z" fill="#1F1F1F"/>
<path d="M25 7H11C9.34315 7 8 8.34315 8 10V24C8 25.6569 9.34315 27 11 27H25C26.6569 27 28 25.6569 28 24V10C28 8.34315 26.6569 7 25 7Z" stroke="#1F1F1F" stroke-width="2"/>
<path d="M13.6 29.8C12.9408 30.2944 12 29.824 12 29V26.5H18L13.6 29.8Z" fill="#1F1F1F"/>
</svg>
