<svg width="210" height="60" viewBox="0 0 210 60" fill="none" xmlns="http://www.w3.org/2000/svg">
<path d="M147.23 0C141.981 0 136.386 4.27318 133.525 13.5756V5.59088C133.525 2.50799 131.133 0 128.193 0C125.253 0 122.861 2.50799 122.861 5.59088L122.86 53.739C122.86 56.8218 125.252 59.3298 128.192 59.3298C131.133 59.3298 133.525 56.8218 133.525 53.739V31.1241C133.525 20.2471 139.382 13.7955 148.377 11.6811C151.252 11.0053 153.037 8.73024 153.037 5.74345C153.037 2.36176 150.649 0 147.23 0Z" fill="#3ECCFF"/>
<path d="M181.096 0C165.497 0 152.805 13.3077 152.805 29.6649C152.805 46.0221 165.497 59.3299 181.096 59.3299C196.696 59.3299 209.387 46.0223 209.387 29.6649C209.387 13.3075 196.696 0 181.096 0ZM181.096 48.1523C171.374 48.1523 163.465 39.8588 163.465 29.6649C163.465 19.471 171.374 11.1776 181.096 11.1776C190.818 11.1776 198.727 19.4709 198.727 29.6649C198.727 39.8589 190.818 48.1523 181.096 48.1523Z" fill="#3ECCFF"/>
<path d="M181.088 22.2585C177.202 22.2585 174.042 25.573 174.042 29.6473C174.042 33.7217 177.202 37.0362 181.088 37.0362C184.974 37.0362 188.135 33.7217 188.135 29.6473C188.135 25.573 184.974 22.2585 181.088 22.2585Z" fill="#3ECCFF"/>
<path d="M86.3636 0C70.7574 0 58.061 13.3077 58.061 29.6649C58.061 46.1701 70.3821 59.3297 87.4245 59.3297C95.7428 59.3297 102.61 56.6778 108.417 51.2225C109.045 50.5642 110.114 49.1387 110.114 47.1016C110.114 44.0181 107.926 41.6929 105.024 41.6929C103.527 41.6929 102.683 42.143 101.729 42.9208C97.5349 46.5427 92.9268 48.3056 87.6472 48.3056C78.6423 48.3056 71.2847 42.7508 69.2701 34.3776L108.371 34.3778C111.976 34.3632 114.59 31.3152 114.59 27.1194C114.59 16.9732 105.104 0 86.3636 0ZM69.2544 24.936C71.1477 16.7477 77.9032 10.9055 86.3636 10.9055C94.7016 10.9055 101.518 16.128 103.456 24.936H69.2544Z" fill="#3ECCFF"/>
<path d="M56.5811 5.52217C56.5811 2.46629 54.2189 0 51.315 0C49.9083 0 48.5858 0.574452 47.5912 1.61744L28.2906 21.8549L8.99005 1.61744C7.99537 0.574452 6.67289 0 5.26619 0C2.36232 0 0.00012207 2.46629 0.00012207 5.52217C0.00012207 6.99719 0.547783 8.38391 1.54246 9.42677L20.8429 29.6642L1.54246 49.9014C0.547904 50.9444 0.00012207 52.3311 0.00012207 53.8062C0.00012207 56.8608 2.35603 59.3283 5.26631 59.3283C6.67289 59.3283 7.99549 58.7539 8.99017 57.7109L28.2906 37.4735L47.591 57.7109C48.5857 58.7539 49.9083 59.3283 51.3148 59.3283C54.2251 59.3283 56.581 56.8608 56.581 53.8062C56.581 52.3311 56.0332 50.9444 55.0387 49.9014L35.7383 29.6641L55.0387 9.42671C56.0334 8.38385 56.5811 6.99725 56.5811 5.52217Z" fill="#3ECCFF"/>
</svg>
